<svg width="55" height="55" viewBox="0 0 55 55" fill="none" xmlns="http://www.w3.org/2000/svg">
<path d="M11.0586 2.29297V12.1563M22.0196 2.29297V12.1563M32.9784 2.29297V12.1563M43.9394 2.29297V12.1563M22.0196 17.638L15.4426 24.2151L12.1563 20.9242M22.0196 29.6944L15.4426 36.2715L12.1563 32.9807M26.4036 22.0219H40.6509M26.4036 32.9807H40.6509" stroke="#D5B23E" stroke-width="2" stroke-linecap="round" stroke-linejoin="round"/>
<path d="M50.5171 8.86891V39.5543H39.5537C38.9721 39.5543 38.4143 39.7854 38.003 40.1967C37.5917 40.608 37.3606 41.1658 37.3606 41.7474V52.7085H6.6775C6.38941 52.7088 6.10409 52.6523 5.83787 52.5422C5.57165 52.4321 5.32977 52.2705 5.12606 52.0668C4.92234 51.8631 4.76081 51.6212 4.6507 51.355C4.5406 51.0888 4.48407 50.8034 4.48438 50.5154V8.86891C4.48438 8.28765 4.71512 7.73017 5.12592 7.31894C5.53671 6.90772 6.09395 6.67639 6.67521 6.67578H48.324C48.612 6.67548 48.8974 6.732 49.1636 6.84211C49.4298 6.95222 49.6717 7.11375 49.8754 7.31746C50.0791 7.52117 50.2406 7.76306 50.3508 8.02928C50.4609 8.2955 50.5174 8.58082 50.5171 8.86891Z" stroke="#D5B23E" stroke-width="2" stroke-linecap="round" stroke-linejoin="round"/>
<path d="M50.5152 39.5547L37.3633 52.7089V41.7478C37.3639 41.1666 37.5952 40.6093 38.0064 40.1985C38.4177 39.7877 38.9751 39.557 39.5564 39.557L50.5152 39.5547Z" stroke="#D5B23E" stroke-width="2" stroke-linecap="round" stroke-linejoin="round"/>
</svg>
