<svg width="43" height="52" viewBox="0 0 43 52" fill="none" xmlns="http://www.w3.org/2000/svg">
<path d="M2.6875 52H40.3125C41.7942 52 43 50.9064 43 49.5625V15.4375C43 15.4099 42.9857 15.3871 42.9839 15.3611C42.9791 15.3254 42.9713 15.2902 42.9606 15.2555C42.9318 15.1428 42.8768 15.037 42.7993 14.9451C42.7868 14.9305 42.7886 14.9126 42.776 14.898L28.4427 0.273L28.4248 0.26325C28.3151 0.159962 28.1773 0.0848356 28.0252 0.0455C27.993 0.0368333 27.9596 0.030875 27.9249 0.027625C27.873 0.0195 27.8246 0 27.7708 0H2.6875C1.20579 0 0 1.09362 0 2.4375V49.5625C0 50.9064 1.20579 52 2.6875 52ZM28.6667 2.94938L40.11 14.625H29.5625C29.1683 14.625 28.6667 13.9425 28.6667 13.4062V2.94938ZM1.79167 2.4375C1.79167 2.22201 1.88605 2.01535 2.05405 1.86298C2.22205 1.7106 2.44991 1.625 2.6875 1.625H26.875V13.4062C26.875 14.7209 28.0485 16.25 29.5625 16.25H41.2083V49.5625C41.2083 49.778 41.114 49.9847 40.9459 50.137C40.7779 50.2894 40.5501 50.375 40.3125 50.375H2.6875C2.18583 50.375 1.79167 50.0175 1.79167 49.5625V2.4375Z" fill="#D5B23E"/>
<path d="M9.89286 22.2353H33.1071C33.3439 22.2353 33.571 22.1485 33.7385 21.9941C33.9059 21.8396 34 21.6302 34 21.4118C34 21.1934 33.9059 20.9839 33.7385 20.8294C33.571 20.675 33.3439 20.5882 33.1071 20.5882H9.89286C9.65606 20.5882 9.42896 20.675 9.26151 20.8294C9.09407 20.9839 9 21.1934 9 21.4118C9 21.6302 9.09407 21.8396 9.26151 21.9941C9.42896 22.1485 9.65606 22.2353 9.89286 22.2353ZM9.89286 28.8235H33.1071C33.3439 28.8235 33.571 28.7368 33.7385 28.5823C33.9059 28.4279 34 28.2184 34 28C34 27.7816 33.9059 27.5721 33.7385 27.4177C33.571 27.2632 33.3439 27.1765 33.1071 27.1765H9.89286C9.65606 27.1765 9.42896 27.2632 9.26151 27.4177C9.09407 27.5721 9 27.7816 9 28C9 28.2184 9.09407 28.4279 9.26151 28.5823C9.42896 28.7368 9.65606 28.8235 9.89286 28.8235ZM9.89286 15.6471H20.6071C20.8439 15.6471 21.071 15.5603 21.2385 15.4059C21.4059 15.2514 21.5 15.0419 21.5 14.8235C21.5 14.6051 21.4059 14.3956 21.2385 14.2412C21.071 14.0868 20.8439 14 20.6071 14H9.89286C9.65606 14 9.42896 14.0868 9.26151 14.2412C9.09407 14.3956 9 14.6051 9 14.8235C9 15.0419 9.09407 15.2514 9.26151 15.4059C9.42896 15.5603 9.65606 15.6471 9.89286 15.6471ZM9.89286 35.4118H33.1071C33.3439 35.4118 33.571 35.325 33.7385 35.1706C33.9059 35.0161 34 34.8066 34 34.5882C34 34.3698 33.9059 34.1604 33.7385 34.0059C33.571 33.8515 33.3439 33.7647 33.1071 33.7647H9.89286C9.65606 33.7647 9.42896 33.8515 9.26151 34.0059C9.09407 34.1604 9 34.3698 9 34.5882C9 34.8066 9.09407 35.0161 9.26151 35.1706C9.42896 35.325 9.65606 35.4118 9.89286 35.4118ZM9.89286 42H33.1071C33.3439 42 33.571 41.9132 33.7385 41.7588C33.9059 41.6044 34 41.3949 34 41.1765C34 40.9581 33.9059 40.7486 33.7385 40.5941C33.571 40.4397 33.3439 40.3529 33.1071 40.3529H9.89286C9.65606 40.3529 9.42896 40.4397 9.26151 40.5941C9.09407 40.7486 9 40.9581 9 41.1765C9 41.3949 9.09407 41.6044 9.26151 41.7588C9.42896 41.9132 9.65606 42 9.89286 42Z" fill="#D5B23E"/>
</svg>
