<svg width="55" height="55" viewBox="0 0 55 55" fill="none" xmlns="http://www.w3.org/2000/svg">
<path d="M14.8958 28.6458H15.2304C20.2858 28.6458 25.2702 29.8238 29.7917 32.0833C34.3131 34.3429 39.2975 35.5208 44.3529 35.5208H46.9792M17.1875 3.4375H37.8125V4.01042L36.1923 6.23792C34.0205 9.22287 32.9859 12.8852 33.275 16.5653C33.5641 20.2454 35.1577 23.7014 37.769 26.3106L51.5625 40.1042C51.5625 44.6875 49.2708 48.125 44.6875 51.5625H10.3125C5.72917 48.125 3.4375 44.6875 3.4375 40.1042L17.2333 26.3083C19.8436 23.6989 21.4365 20.2433 21.7251 16.5637C22.0138 12.8841 20.9792 9.22242 18.8077 6.23792L17.1875 4.01042V3.4375Z" stroke="#D5B23E" stroke-width="2"/>
</svg>
