<svg width="55" height="55" viewBox="0 0 55 55" fill="none" xmlns="http://www.w3.org/2000/svg">
<path d="M52.8514 26.6426C52.8485 24.4014 52.1981 22.2088 50.9784 20.3285C49.7587 18.4483 48.0217 16.9606 45.9764 16.0443V15.4707C45.9742 13.2899 45.2509 11.1712 43.9189 9.44442C42.587 7.71769 40.7214 6.47997 38.6127 5.92411C36.504 5.36824 34.2707 5.52545 32.2606 6.37123C30.2506 7.21702 28.5767 8.70388 27.4998 10.6002C26.423 8.70388 24.7491 7.21702 22.7391 6.37123C20.729 5.52545 18.4957 5.36824 16.387 5.92411C14.2783 6.47997 12.4127 7.71769 11.0807 9.44442C9.74884 11.1712 9.02545 13.2899 9.02329 15.4707V16.0443C6.97636 16.9575 5.23779 18.4441 4.01775 20.3243C2.79771 22.2045 2.14844 24.3979 2.14844 26.6393C2.14844 28.8807 2.79771 31.0741 4.01775 32.9544C5.23779 34.8346 6.97636 36.3212 9.02329 37.2343V37.8144C9.02545 39.9952 9.74884 42.1139 11.0807 43.8407C12.4127 45.5674 14.2783 46.8051 16.387 47.361C18.4957 47.9169 20.729 47.7597 22.7391 46.9139C24.7491 46.0681 26.423 44.5812 27.4998 42.6849C28.5767 44.5812 30.2506 46.0681 32.2606 46.9139C34.2707 47.7597 36.504 47.9169 38.6127 47.361C40.7214 46.8051 42.587 45.5674 43.9189 43.8407C45.2509 42.1139 45.9742 39.9952 45.9764 37.8144V37.2343C48.0217 36.3199 49.7589 34.8334 50.9787 32.9542C52.1985 31.0749 52.8489 28.883 52.8514 26.6426ZM18.9061 45.1191C17.0076 45.12 15.1833 44.3818 13.8198 43.0608C12.4563 41.7397 11.6606 39.9397 11.6014 38.0422C12.3097 38.1765 13.029 38.2441 13.7498 38.2441H15.4686C15.8105 38.2441 16.1384 38.1083 16.3801 37.8666C16.6218 37.6248 16.7577 37.2969 16.7577 36.9551C16.7577 36.6132 16.6218 36.2853 16.3801 36.0435C16.1384 35.8018 15.8105 35.666 15.4686 35.666H13.7498C11.62 35.6677 9.55812 34.916 7.92916 33.5438C6.30019 32.1716 5.20912 30.2674 4.849 28.1682C4.48889 26.069 4.88294 23.9101 5.96144 22.0734C7.03994 20.2368 8.73335 18.8408 10.742 18.1326C10.9935 18.0437 11.2111 17.879 11.3651 17.6612C11.519 17.4434 11.6016 17.1833 11.6014 16.9166V15.4707C11.6014 13.5334 12.371 11.6754 13.7409 10.3055C15.1108 8.93559 16.9688 8.16599 18.9061 8.16599C20.8434 8.16599 22.7014 8.93559 24.0713 10.3055C25.4412 11.6754 26.2108 13.5334 26.2108 15.4707V31.165C25.2861 30.1463 24.1585 29.3324 22.9005 28.7755C21.6425 28.2187 20.2819 27.9312 18.9061 27.9316C18.5642 27.9316 18.2363 28.0674 17.9946 28.3092C17.7528 28.5509 17.617 28.8788 17.617 29.2207C17.617 29.5626 17.7528 29.8904 17.9946 30.1322C18.2363 30.3739 18.5642 30.5097 18.9061 30.5097C20.8434 30.5097 22.7014 31.2793 24.0713 32.6492C25.4412 34.0191 26.2108 35.8771 26.2108 37.8144C26.2108 39.7518 25.4412 41.6097 24.0713 42.9796C22.7014 44.3495 20.8434 45.1191 18.9061 45.1191ZM41.2498 35.666H39.5311C39.1892 35.666 38.8613 35.8018 38.6196 36.0435C38.3778 36.2853 38.242 36.6132 38.242 36.9551C38.242 37.2969 38.3778 37.6248 38.6196 37.8666C38.8613 38.1083 39.1892 38.2441 39.5311 38.2441H41.2498C41.9707 38.2441 42.69 38.1765 43.3983 38.0422C43.3535 39.4763 42.8874 40.8656 42.0581 42.0365C41.2287 43.2074 40.0729 44.1082 38.7348 44.6263C37.3967 45.1444 35.9357 45.257 34.534 44.9499C33.1324 44.6429 31.8522 43.9298 30.8533 42.8997C29.8544 41.8697 29.1809 40.5682 28.9171 39.1578C28.6532 37.7474 28.8105 36.2905 29.3695 34.969C29.9284 33.6474 30.8642 32.5198 32.06 31.7267C33.2558 30.9337 34.6587 30.5104 36.0936 30.5097C36.4355 30.5097 36.7634 30.3739 37.0051 30.1322C37.2468 29.8904 37.3827 29.5626 37.3827 29.2207C37.3827 28.8788 37.2468 28.5509 37.0051 28.3092C36.7634 28.0674 36.4355 27.9316 36.0936 27.9316C34.7178 27.9312 33.3572 28.2187 32.0992 28.7755C30.8412 29.3324 29.7136 30.1463 28.7889 31.165V15.4707C28.7889 13.5334 29.5585 11.6754 30.9284 10.3055C32.2983 8.93559 34.1563 8.16599 36.0936 8.16599C38.0309 8.16599 39.8889 8.93559 41.2588 10.3055C42.6287 11.6754 43.3983 13.5334 43.3983 15.4707V16.9166C43.3981 17.1833 43.4807 17.4434 43.6346 17.6612C43.7886 17.879 44.0062 18.0437 44.2577 18.1326C46.2663 18.8408 47.9598 20.2368 49.0383 22.0734C50.1168 23.9101 50.5108 26.069 50.1507 28.1682C49.7906 30.2674 48.6995 32.1716 47.0705 33.5438C45.4416 34.916 43.3797 35.6677 41.2498 35.666ZM44.2577 24.0644C44.2577 24.4063 44.1218 24.7342 43.8801 24.9759C43.6384 25.2177 43.3105 25.3535 42.9686 25.3535H42.1092C40.1719 25.3535 38.3139 24.5839 36.944 23.214C35.5741 21.8441 34.8045 19.9861 34.8045 18.0488V17.1894C34.8045 16.8475 34.9403 16.5197 35.1821 16.2779C35.4238 16.0362 35.7517 15.9004 36.0936 15.9004C36.4355 15.9004 36.7634 16.0362 37.0051 16.2779C37.2468 16.5197 37.3827 16.8475 37.3827 17.1894V18.0488C37.3827 19.3024 37.8806 20.5046 38.767 21.391C39.6534 22.2774 40.8557 22.7754 42.1092 22.7754H42.9686C43.3105 22.7754 43.6384 22.9112 43.8801 23.1529C44.1218 23.3947 44.2577 23.7225 44.2577 24.0644ZM12.8905 25.3535H12.0311C11.6892 25.3535 11.3613 25.2177 11.1196 24.9759C10.8778 24.7342 10.742 24.4063 10.742 24.0644C10.742 23.7225 10.8778 23.3947 11.1196 23.1529C11.3613 22.9112 11.6892 22.7754 12.0311 22.7754H12.8905C14.144 22.7754 15.3463 22.2774 16.2327 21.391C17.1191 20.5046 17.617 19.3024 17.617 18.0488V17.1894C17.617 16.8475 17.7528 16.5197 17.9946 16.2779C18.2363 16.0362 18.5642 15.9004 18.9061 15.9004C19.248 15.9004 19.5759 16.0362 19.8176 16.2779C20.0593 16.5197 20.1952 16.8475 20.1952 17.1894V18.0488C20.1952 19.9861 19.4256 21.8441 18.0557 23.214C16.6858 24.5839 14.8278 25.3535 12.8905 25.3535Z" fill="#D5B23E"/>
</svg>
