<svg width="55" height="55" viewBox="0 0 55 55" fill="none" xmlns="http://www.w3.org/2000/svg">
<path d="M13.2802 32.7865L9.21937 28.7188L5.15625 32.7865M41.7198 22.293L45.7806 26.363L49.8438 22.293" stroke="#D5B23E" stroke-width="3" stroke-linecap="round" stroke-linejoin="round"/>
<path d="M45.78 26.3612C45.78 21.5029 43.855 16.8485 40.4267 13.4133C38.7302 11.7135 36.7153 10.3649 34.497 9.44472C32.2788 8.52455 29.9009 8.05087 27.4994 8.05079C25.1666 8.04894 22.8555 8.49793 20.6931 9.37308C18.2792 10.3409 16.0995 11.8125 14.2995 13.6896C12.4994 15.5667 11.1205 17.8062 10.2546 20.2585M9.21875 28.7147C9.22227 32.9648 10.7023 37.0816 13.4056 40.361C16.106 43.6365 19.8631 45.8691 24.0311 46.675C28.199 47.4809 32.5176 46.8098 36.2444 44.777C39.971 42.7401 42.8749 39.4726 44.46 35.5325" stroke="#D5B23E" stroke-width="3" stroke-linecap="round" stroke-linejoin="round"/>
<path d="M21.9531 32.0344C22.0724 33.3948 22.7196 34.6545 23.7562 35.5437C24.7927 36.4329 26.1362 36.881 27.499 36.7919C31.9723 36.7919 33.0448 34.2183 33.0448 32.0344C33.0448 29.8504 31.1954 27.5358 27.499 27.5358C23.8025 27.5358 21.9531 26.0737 21.9531 23.0946C22.0044 22.0622 22.369 21.07 22.9982 20.25C23.6274 19.43 24.4915 18.8211 25.4754 18.5044C26.1285 18.2935 26.816 18.2179 27.499 18.2821C28.8635 18.2228 30.1988 18.6886 31.2304 19.5838C32.2619 20.4789 32.9113 21.7353 33.0448 23.0946M27.499 39.5648V37.1562M27.499 15.5V18.2729" stroke="#D5B23E" stroke-width="3" stroke-linecap="round" stroke-linejoin="round"/>
</svg>
