<svg width="55" height="55" viewBox="0 0 55 55" fill="none" xmlns="http://www.w3.org/2000/svg">
<path d="M50.4173 27.5C50.4173 27.5 40.1552 41.25 27.5006 41.25C14.8461 41.25 4.58398 27.5 4.58398 27.5C4.58398 27.5 14.8461 13.75 27.5006 13.75C40.1552 13.75 50.4173 27.5 50.4173 27.5Z" stroke="white" stroke-width="2" stroke-miterlimit="10" stroke-linecap="round" stroke-linejoin="round"/>
<path d="M27.5 34.375C29.3234 34.375 31.072 33.6507 32.3614 32.3614C33.6507 31.072 34.375 29.3234 34.375 27.5C34.375 25.6766 33.6507 23.928 32.3614 22.6386C31.072 21.3493 29.3234 20.625 27.5 20.625C25.6766 20.625 23.928 21.3493 22.6386 22.6386C21.3493 23.928 20.625 25.6766 20.625 27.5C20.625 29.3234 21.3493 31.072 22.6386 32.3614C23.928 33.6507 25.6766 34.375 27.5 34.375Z" stroke="white" stroke-width="2" stroke-miterlimit="10" stroke-linecap="round" stroke-linejoin="round"/>
</svg>
