<svg width="55" height="55" viewBox="0 0 55 55" fill="none" xmlns="http://www.w3.org/2000/svg">
<path d="M36.6445 20.0215C36.9603 20.0271 37.2621 20.1556 37.4854 20.3789C37.7084 20.6022 37.8362 20.9032 37.8418 21.2188C37.8474 21.5344 37.7298 21.8393 37.5146 22.0703L26.0684 33.5166C25.8399 33.7445 25.5307 33.873 25.208 33.873C24.9254 33.873 24.6524 33.7751 24.4355 33.5977L24.3467 33.5166L18.6299 27.7998C18.4148 27.5689 18.2973 27.2638 18.3027 26.9482C18.3083 26.6325 18.4369 26.3307 18.6602 26.1074C18.8834 25.8843 19.1844 25.7565 19.5 25.751C19.7764 25.7461 20.0451 25.8352 20.2627 26.002L20.3525 26.0781L25.208 30.9336L25.5615 30.5801L35.792 20.3486C36.023 20.1334 36.3289 20.016 36.6445 20.0215Z" fill="#D5B23E" stroke="white"/>
<path d="M26.417 1.93457C27.1211 1.70617 27.8799 1.70617 28.584 1.93457L47.4902 8.06543C48.1954 8.29422 48.8101 8.74026 49.2461 9.33984C49.6821 9.93946 49.9167 10.6619 49.917 11.4033V22.916C49.917 36.6405 41.7021 46.7197 29.291 51.6211L28.6963 51.8506C27.9254 52.1406 27.0755 52.1406 26.3047 51.8506C13.5601 47.0411 5.08398 36.8585 5.08398 22.916V11.4033C5.08398 9.88328 6.06442 8.53398 7.51074 8.06445L26.417 1.93457ZM47.4795 11.4014C47.4787 11.1753 47.4067 10.9551 47.2734 10.7725C47.1401 10.5898 46.9525 10.4534 46.7373 10.3838L27.8311 4.25195L27.667 4.21289C27.5014 4.18689 27.3309 4.19983 27.1699 4.25195L8.26367 10.3838C8.04857 10.4535 7.86084 10.5898 7.72754 10.7725C7.59431 10.9551 7.52225 11.1753 7.52148 11.4014V22.916C7.52148 35.6708 15.2014 45.0551 27.1641 49.5684L27.165 49.5693C27.3813 49.6501 27.6197 49.6501 27.8359 49.5693L27.8379 49.5684C39.8003 45.055 47.4795 35.6729 47.4795 22.916V11.4014Z" fill="#D5B23E" stroke="white"/>
</svg>
