<svg width="55" height="55" viewBox="0 0 55 55" fill="none" xmlns="http://www.w3.org/2000/svg">
<path d="M5.25879 32.9258H14.8809C15.1128 32.9259 15.335 33.0186 15.499 33.1826C15.663 33.3467 15.7558 33.5688 15.7559 33.8008V49.8477C15.7557 50.0796 15.663 50.3018 15.499 50.4658C15.335 50.6298 15.1128 50.7225 14.8809 50.7227H5.25586C5.14074 50.7232 5.02644 50.7009 4.91992 50.6572C4.81333 50.6135 4.71643 50.549 4.63477 50.4678C4.55305 50.3865 4.48858 50.2891 4.44434 50.1826C4.40022 50.0764 4.37701 49.9627 4.37695 49.8477V33.8008C4.37704 33.3224 4.77026 32.9258 5.25879 32.9258ZM40.3213 16.5293H49.9395C50.1715 16.5293 50.3945 16.6211 50.5586 16.7852C50.7226 16.9492 50.8145 17.1723 50.8145 17.4043V49.8438C50.8145 50.0758 50.7227 50.2988 50.5586 50.4629C50.3945 50.627 50.1715 50.7188 49.9395 50.7188H40.3184C40.2032 50.7193 40.0889 50.697 39.9824 50.6533C39.8758 50.6096 39.7789 50.5451 39.6973 50.4639C39.6156 50.3826 39.5511 50.286 39.5068 50.1797C39.4626 50.0732 39.4395 49.959 39.4395 49.8438V17.4043C39.4395 16.9258 39.8327 16.5293 40.3213 16.5293ZM22.79 4.28125H32.4092C32.5243 4.28096 32.6387 4.30381 32.7451 4.34766C32.8514 4.3915 32.9479 4.4559 33.0293 4.53711C33.1108 4.61838 33.1756 4.715 33.2197 4.82129C33.2638 4.92751 33.2871 5.04127 33.2871 5.15625V49.8438C33.2871 50.3237 32.892 50.7185 32.4121 50.7188H22.7871C22.672 50.7193 22.5577 50.697 22.4512 50.6533C22.3446 50.6096 22.2477 50.5451 22.166 50.4639C22.0844 50.3826 22.0198 50.286 21.9756 50.1797C21.9313 50.0732 21.9082 49.959 21.9082 49.8438V5.15625C21.9082 4.67778 22.3015 4.28127 22.79 4.28125ZM41.2031 48.9727H49.0576V18.2822H41.2031V48.9727ZM6.14453 48.9688H13.998V34.6729H6.14453V48.9688ZM23.6758 48.9688H31.5264V6.03125H23.6758V48.9688Z" fill="#D5B23E" stroke="white"/>
</svg>
