<svg width="55" height="55" viewBox="0 0 55 55" fill="none" xmlns="http://www.w3.org/2000/svg">
<path d="M27.5013 20.6257C31.9311 20.6257 35.5221 17.0346 35.5221 12.6048C35.5221 8.17503 31.9311 4.58398 27.5013 4.58398C23.0715 4.58398 19.4805 8.17503 19.4805 12.6048C19.4805 17.0346 23.0715 20.6257 27.5013 20.6257Z" stroke="white" stroke-width="2" stroke-linecap="round" stroke-linejoin="round"/>
<path d="M4.58398 46.9798C4.58398 36.8541 13.8183 28.6465 25.209 28.6465M42.3965 35.5215V32.084C42.3965 31.1723 42.0343 30.298 41.3897 29.6533C40.745 29.0086 39.8707 28.6465 38.959 28.6465C38.0473 28.6465 37.173 29.0086 36.5283 29.6533C35.8836 30.298 35.5215 31.1723 35.5215 32.084V35.5215M30.9381 35.5215H46.9798V46.9798H30.9381V35.5215Z" stroke="white" stroke-width="2" stroke-linecap="round" stroke-linejoin="round"/>
</svg>
