<svg width="55" height="55" viewBox="0 0 55 55" fill="none" xmlns="http://www.w3.org/2000/svg">
<path d="M38.1104 42.9268L37.5635 41.7568L38.7695 42.2754C39.3874 42.5413 40.0745 42.605 40.7305 42.4561C41.3862 42.3071 41.9776 41.9537 42.4199 41.4473L42.4297 41.4365L42.4395 41.4268C42.8938 40.962 43.1805 40.3587 43.2539 39.7129C43.3273 39.067 43.1833 38.4143 42.8447 37.8594L41.8574 36.2422L43.4258 37.1133C44.6392 37.084 45.6899 36.4122 46.2529 35.4248C46.5359 34.6779 46.6316 33.8727 46.5293 33.0801C46.4396 32.3848 46.1991 31.7193 45.8291 31.127L45.8105 31.1309L45.6299 30.8301L45.6201 30.8135L46.0498 30.5293L45.9629 30.082C47.2713 29.8267 47.8315 29.3938 48.2432 28.833C48.4663 28.5289 48.6531 28.1764 48.8848 27.7383C49.1122 27.3081 49.374 26.8125 49.7334 26.2734L49.7432 26.2598L49.7539 26.2461C50.9724 24.6674 52.4636 23.3215 54.1553 22.2715L44.6436 11.0342C42.8038 12.6984 40.6564 13.9898 38.3193 14.832L38.2783 14.8467L38.2363 14.8545C37.4914 14.9859 36.4754 14.8433 35.4082 14.6533C34.3016 14.4563 33.0925 14.1973 31.8359 14.0254C29.2999 13.6786 26.8703 13.7391 25.3027 15.2451C24.6957 15.8511 23.9548 16.4494 23.1992 17.0332L22.9648 17.2148L22.6934 17.0957C21.0524 16.3778 18.4799 15.2658 16.5947 14.1836C15.6774 13.657 14.0545 12.8021 12.6523 12.0752C11.9531 11.7127 11.3114 11.3832 10.8447 11.1445C10.6871 11.0639 10.5488 10.9942 10.4355 10.9365L0.637695 22.3662C0.691976 22.4399 0.755155 22.5249 0.825195 22.6201C1.08868 22.9782 1.45584 23.4797 1.87305 24.0518C2.70698 25.1952 3.74135 26.6247 4.53516 27.7637L4.53809 27.7686C5.58627 29.3059 6.86965 31.6305 7.69434 33.1768L7.85449 33.4775L7.63379 33.7363L6.50879 35.0596C6.2948 35.5119 6.21959 36.018 6.29395 36.5137C6.36892 37.0132 6.59276 37.4775 6.93457 37.8486C7.33775 38.1418 7.82304 38.3008 8.32227 38.2998C8.83505 38.2988 9.33397 38.1307 9.74219 37.8203L10.4248 38.543C10.2842 38.7076 10.1774 38.8983 10.1113 39.1045C10.0453 39.3107 10.0212 39.5284 10.04 39.7441C10.0589 39.9599 10.1209 40.1696 10.2217 40.3613C10.3163 40.5413 10.4442 40.701 10.5977 40.834C11.0377 41.0804 11.5333 41.211 12.0381 41.21C12.5572 41.2089 13.0665 41.0696 13.5146 40.8076L14.1572 41.5527C13.8354 41.9539 13.6588 42.4525 13.6572 42.9668C13.6559 43.4327 13.7993 43.8857 14.0635 44.2666C14.4552 44.3809 14.8666 44.4142 15.2725 44.3623C15.7278 44.3041 16.164 44.1416 16.5459 43.8867L17.9375 42.958L17.2832 44.498C17.0996 44.9308 17.0521 45.4096 17.1465 45.8701C17.235 46.3015 17.446 46.6967 17.751 47.0127C18.2332 47.2094 18.7548 47.2905 19.2744 47.2451C19.8153 47.1979 20.3354 47.0165 20.7891 46.7188L22.5273 45.1455L22.8789 44.8271L23.2158 45.1621C24.7478 46.6875 26.859 47.63 29.1914 47.6309L29.3662 47.6289C30.0888 47.5668 30.7813 47.3107 31.3691 46.8857C31.9581 46.4599 32.4197 45.8813 32.7051 45.2129L32.8945 44.7695L33.3438 44.9424C33.7991 45.117 34.3094 45.2324 34.8428 45.2324C35.5562 45.2324 36.2169 45.0271 36.7754 44.6738C37.7118 44.0524 37.9977 43.5485 38.084 43.2695C38.1277 43.1282 38.1253 43.0276 38.1191 42.9746C38.1162 42.9493 38.1122 42.9331 38.1104 42.9268ZM38.1104 42.9268L38.1133 42.9346C38.1139 42.9361 38.1154 42.9376 38.1162 42.9395C38.1167 42.9405 38.1167 42.9422 38.1172 42.9434L38.1191 42.9453L38.1104 42.9268ZM10.5791 12.7754L2.74219 22.2979L2.49902 22.5928L2.7207 22.9053L2.72168 22.9062C2.72253 22.9074 2.72387 22.9097 2.72559 22.9121C2.72907 22.917 2.7343 22.9248 2.74121 22.9346C2.75503 22.9541 2.77609 22.9827 2.80273 23.0205C2.85623 23.0963 2.93427 23.2082 3.0332 23.3496C3.23109 23.6325 3.51124 24.036 3.84082 24.5176C4.33573 25.2407 4.9409 26.1386 5.54395 27.0684L6.14258 28.0039L8.4209 31.8525L8.67578 32.2812L9.10547 32.0283C9.64942 31.7086 10.2819 31.5729 10.9092 31.6406C11.458 31.6999 11.9776 31.9118 12.4092 32.251L12.5889 32.4043L12.5947 32.4092C12.934 32.7141 13.1418 33.1388 13.1758 33.5938C13.2097 34.0486 13.0666 34.4988 12.7764 34.8506L13.4834 35.5527C13.9595 35.1541 14.5494 34.9163 15.1689 34.874C15.7844 34.8321 16.3973 34.9856 16.9209 35.3115H16.9219C17.122 35.4438 17.2902 35.6192 17.4131 35.8252C17.5359 36.0311 17.6104 36.2621 17.6318 36.501C17.6532 36.7399 17.6205 36.9805 17.5361 37.2051C17.4517 37.4296 17.318 37.6322 17.1445 37.7979L17.793 38.5576C18.1565 38.2809 18.6007 38.1304 19.0576 38.1299C19.5058 38.1294 19.9415 38.2741 20.3018 38.54C20.4573 38.6878 20.5825 38.8646 20.668 39.0615C20.7564 39.2654 20.8013 39.4858 20.7998 39.708C20.7983 39.9302 20.7503 40.1499 20.6592 40.3525C20.5681 40.555 20.4356 40.7363 20.2705 40.8848L20.7686 41.7295C21.212 41.575 21.6896 41.5432 22.1494 41.6387C22.5983 41.7318 23.0136 41.943 23.3545 42.249C23.49 42.4093 23.5648 42.612 23.5625 42.8223V43.0381L23.7041 43.1836C24.3131 43.81 25.3358 44.7906 26.459 45.4854C27.5442 46.1565 28.924 46.6826 30.1143 46.0215C30.6166 45.7424 30.9974 45.4331 31.2363 45.0732C31.4851 44.6985 31.5619 44.2973 31.501 43.8945C31.4427 43.5097 31.2619 43.1473 31.043 42.8154C30.8224 42.4811 30.5405 42.1447 30.2441 41.8135C29.647 41.1462 28.857 40.383 28.1152 39.6455C27.3612 38.8958 26.6566 38.172 26.1855 37.5537L26.1787 37.5449L26.001 37.3037C25.811 37.0221 25.6627 36.7123 25.5576 36.3828C25.916 36.7097 26.3473 37.1042 26.8135 37.5322C28.0724 38.688 29.5808 40.0848 30.5898 41.0596C31.2623 41.748 32.219 42.5646 33.1807 43.0684C33.663 43.321 34.1799 43.512 34.6826 43.5479C35.2 43.5846 35.7179 43.4555 36.1328 43.0527C36.4762 42.7194 36.6995 42.3528 36.7471 41.9385C36.7944 41.5254 36.6567 41.153 36.4609 40.8311C36.2677 40.5133 35.9925 40.2023 35.7012 39.8975C35.5535 39.7429 35.3944 39.5826 35.2334 39.4199C35.0712 39.2561 34.9054 39.0876 34.7373 38.9111C34.044 38.1832 32.8775 37.0256 31.8193 35.9717C30.7468 34.9034 29.8061 33.962 29.5312 33.6387L29.5186 33.624L29.5059 33.6104L29.4062 33.5059C29.2219 33.2987 29.0709 33.0642 28.957 32.8115C29.4677 33.2657 30.1223 33.848 30.835 34.4756C32.4539 35.9013 34.3774 37.5752 35.5723 38.5449C35.8651 38.7826 36.1399 39.0116 36.4004 39.2305C36.6597 39.4484 36.9072 39.6579 37.1416 39.8496C37.6063 40.2296 38.0469 40.5654 38.4717 40.7959C38.8998 41.0281 39.3546 41.1769 39.8379 41.1289C40.327 41.0804 40.7677 40.8385 41.1826 40.4434C41.6498 39.9983 41.8302 39.4756 41.7666 38.9346C41.7072 38.4295 41.4419 37.9634 41.1406 37.5693C40.5478 36.7941 39.6148 36.0586 39.1836 35.6582C38.407 34.9334 37.1942 33.859 36.0557 32.8271C34.9031 31.7825 33.8351 30.7889 33.3086 30.1963L33.3037 30.1904L33.2988 30.1855L33.0742 29.9307C32.8879 29.7038 32.7243 29.4582 32.5801 29.1982C33.0296 29.5231 33.5666 29.9114 34.1455 30.332C35.7483 31.4965 37.6698 32.9028 38.9541 33.8789C40.222 34.8425 41.2387 35.5657 42.1543 35.8154C42.6361 35.9468 43.1063 35.9535 43.5762 35.7969C44.037 35.6433 44.4581 35.3456 44.8691 34.9346L45.0156 34.7881V34.7637C45.2544 34.4604 45.3876 34.0944 45.3857 33.6777C45.3835 33.1984 45.2056 32.6911 44.8877 32.166C44.2553 31.1214 42.987 29.8711 40.96 28.3984L40.9453 28.3877L40.9307 28.3789L40.3369 27.998C38.9458 27.081 37.5118 25.9747 36.1875 24.9248C34.6893 23.737 33.3111 22.6033 32.3379 21.9463L32.3008 21.9209L32.2588 21.9033L31.8447 21.7344C30.8673 21.3643 29.8092 21.1633 28.7051 21.1631C26.9633 21.1546 25.2589 21.6667 23.8096 22.6328H23.8086C22.8276 23.2891 21.6694 23.6296 20.4893 23.6094C19.3565 23.5898 18.2559 23.2377 17.3223 22.5996C17.2943 22.4841 17.3051 22.3384 17.3828 22.1416C17.4893 21.8721 17.7074 21.5491 18.0439 21.1758C18.7166 20.4298 19.7549 19.5962 20.9248 18.7188L21.5928 18.2178L20.8359 17.8652C19.3348 17.167 17.412 16.3242 16.3027 15.6855L16.2998 15.6836L15.4238 15.1807C14.5379 14.6668 13.6402 14.1315 12.9033 13.6875C12.4126 13.3918 11.9935 13.1371 11.6973 12.9561C11.5492 12.8656 11.4319 12.7935 11.3516 12.7441C11.3115 12.7195 11.2806 12.7003 11.2598 12.6875C11.2495 12.6812 11.2416 12.6761 11.2363 12.6729C11.2338 12.6713 11.2318 12.6698 11.2305 12.6689L11.2285 12.668L10.8564 12.4385L10.5791 12.7754Z" fill="white" stroke="white"/>
</svg>
