<svg width="55" height="55" viewBox="0 0 55 55" fill="none" xmlns="http://www.w3.org/2000/svg">
<path d="M51.0333 27.5205C51.0333 42.5944 42.5475 51.0723 27.4775 51.0723C12.4075 51.0723 3.92969 42.5944 3.92969 27.5205C3.92969 12.4544 12.4075 3.97266 27.4815 3.97266" stroke="#D5B23E" stroke-width="2" stroke-linecap="round" stroke-linejoin="round"/>
<path d="M23.7083 15.6683C18.2437 16.9097 15.2305 21.0425 15.2305 27.5208C15.2305 35.3583 19.6423 39.7661 27.4798 39.7661C34.2723 39.7661 38.4915 36.4543 39.4933 30.4633M27.4798 27.5208L35.6394 19.3572M35.6355 19.369L35.1483 17.7818C34.7269 16.4161 34.686 14.9612 35.0301 13.574C35.3741 12.1867 36.0901 10.9196 37.1008 9.90897L43.0762 3.92969L44.9619 10.0386L51.0708 11.9243L45.0915 17.9036C44.0813 18.9137 42.8149 19.6292 41.4284 19.9732C40.0419 20.3172 38.5878 20.2768 37.2226 19.8561L35.6355 19.369Z" stroke="#D5B23E" stroke-width="2" stroke-linecap="round" stroke-linejoin="round"/>
</svg>
