<svg width="55" height="55" viewBox="0 0 55 55" fill="none" xmlns="http://www.w3.org/2000/svg">
<path d="M46.9595 21.5364C46.9595 26.7002 44.9082 31.6524 41.2569 35.3038C37.6056 38.9551 32.6533 41.0064 27.4895 41.0064C22.3258 41.0064 17.3735 38.9551 13.7222 35.3038C10.0708 31.6524 8.01953 26.7002 8.01953 21.5364C8.01953 16.3726 10.0708 11.4204 13.7222 7.76904C17.3735 4.1177 22.3258 2.06641 27.4895 2.06641C32.6533 2.06641 37.6056 4.1177 41.2569 7.76904C44.9082 11.4204 46.9595 16.3726 46.9595 21.5364Z" stroke="#D5B23E" stroke-width="2" stroke-linecap="round" stroke-linejoin="round"/>
<path d="M10.6234 31.0852L1.96484 46.0844L11.3188 43.578L13.8291 52.9319L21.3406 39.9205M44.3777 31.0852L53.0363 46.0844L43.6784 43.578L41.172 52.9319L33.6606 39.9205M28.2863 10.963L30.9695 16.3609C31.0277 16.498 31.1221 16.6168 31.2424 16.7047C31.3628 16.7925 31.5047 16.8461 31.6531 16.8598L37.6127 17.7634C37.7832 17.7852 37.944 17.8552 38.0762 17.9652C38.2083 18.0752 38.3063 18.2206 38.3587 18.3843C38.4111 18.5481 38.4157 18.7234 38.3719 18.8897C38.3282 19.0559 38.2379 19.2063 38.1116 19.323L33.7077 23.503C33.6417 23.6277 33.6071 23.7666 33.6071 23.9077C33.6071 24.0487 33.6417 24.1876 33.7077 24.3123L34.5523 30.2366C34.589 30.4083 34.5748 30.5869 34.5116 30.7507C34.4484 30.9145 34.3388 31.0563 34.1963 31.1588C34.0538 31.2613 33.8845 31.3201 33.7091 31.3279C33.5338 31.3358 33.3599 31.2924 33.2088 31.203L27.9052 28.398C27.7681 28.3362 27.6195 28.3042 27.4691 28.3042C27.3188 28.3042 27.1701 28.3362 27.0331 28.398L21.7295 31.203C21.5785 31.29 21.4056 31.3314 21.2317 31.3224C21.0577 31.3133 20.89 31.2542 20.7489 31.1521C20.6077 31.0499 20.4991 30.9092 20.4361 30.7468C20.3731 30.5843 20.3584 30.4072 20.3938 30.2366L21.3916 24.3123C21.4349 24.175 21.4432 24.029 21.4158 23.8877C21.3883 23.7464 21.326 23.6141 21.2345 23.503L16.8384 19.2877C16.7203 19.1695 16.6372 19.0209 16.5985 18.8584C16.5597 18.6958 16.5668 18.5258 16.6189 18.367C16.671 18.2083 16.7661 18.0671 16.8936 17.9591C17.0211 17.8512 17.1761 17.7807 17.3413 17.7555L23.297 16.8912C23.4454 16.8775 23.5873 16.8239 23.7076 16.7361C23.828 16.6482 23.9223 16.5294 23.9806 16.3923L26.6638 10.9944C26.7352 10.8412 26.8482 10.7111 26.9898 10.6189C27.1315 10.5267 27.2962 10.4761 27.4652 10.4728C27.6342 10.4696 27.8008 10.5138 27.9459 10.6004C28.091 10.6871 28.209 10.8127 28.2863 10.963Z" stroke="#D5B23E" stroke-width="2" stroke-linecap="round" stroke-linejoin="round"/>
</svg>
