<svg width="55" height="55" viewBox="0 0 55 55" fill="none" xmlns="http://www.w3.org/2000/svg">
<path d="M10.9167 44.5985V40.8951H17.8421L11.9135 21.4962C10.9113 21.0119 10.1131 20.3183 9.51875 19.4153C8.92292 18.514 8.625 17.4774 8.625 16.3055C8.625 14.7182 9.1834 13.3661 10.3002 12.2493C11.417 11.1325 12.7691 10.5749 14.3565 10.5764C15.7574 10.5764 16.9598 11.0057 17.9635 11.8643C18.9673 12.7229 19.6395 13.8214 19.9802 15.1597H28.3677V11.7222C28.3677 11.3953 28.4777 11.1226 28.6977 10.9041C28.9177 10.6856 29.1904 10.5764 29.5158 10.5764C29.771 10.5764 29.9948 10.6528 30.1873 10.8056C30.3798 10.9583 30.502 11.1577 30.554 11.4037V12.0224L34.7156 8.17701C35.0303 7.86229 35.3817 7.67208 35.7698 7.60638C36.1609 7.54069 36.5413 7.60791 36.911 7.80805L45.5827 11.8437C45.8653 11.9858 46.0777 12.1882 46.2198 12.451C46.3619 12.7137 46.3672 12.9811 46.2358 13.253C46.0953 13.5357 45.8936 13.7144 45.6308 13.7893C45.3681 13.8642 45.0992 13.8359 44.8242 13.7045L36.1342 9.65743L30.6617 14.6991V17.9074L36.1342 22.8345L44.8242 18.7897C45.0976 18.6583 45.3681 18.6324 45.6354 18.7118C45.9012 18.7897 46.1006 18.9654 46.2335 19.2389C46.3741 19.5215 46.371 19.7919 46.2244 20.0501C46.0777 20.3099 45.8638 20.51 45.5827 20.6505L36.9088 24.7137C36.5375 24.9123 36.1578 24.9719 35.7698 24.8924C35.3802 24.8115 35.0281 24.6281 34.7133 24.3424L30.554 20.5887V21.2051C30.5005 21.4343 30.3775 21.6299 30.185 21.7918C29.9925 21.9537 29.7687 22.0347 29.5135 22.0347C29.1866 22.0347 28.9139 21.9247 28.6954 21.7047C28.4769 21.4862 28.3677 21.2143 28.3677 20.8889V17.4514H19.9756C19.861 17.9617 19.6708 18.4681 19.405 18.9708C19.1392 19.4734 18.8474 19.892 18.5296 20.2266L29.6373 40.8974H38.4144V44.5962L10.9167 44.5985ZM16.7765 18.7301C17.4517 18.0564 17.7894 17.2474 17.7894 16.3033C17.7894 15.3591 17.4517 14.5509 16.7765 13.8787C16.1012 13.2065 15.293 12.8688 14.3519 12.8658C13.4108 12.8627 12.601 13.2003 11.9227 13.8787C11.2505 14.5524 10.9144 15.3606 10.9144 16.3033C10.9144 17.2474 11.2505 18.0564 11.9227 18.7301C12.598 19.4054 13.4077 19.7431 14.3519 19.7431C15.296 19.7431 16.1042 19.4054 16.7765 18.7301ZM20.2483 40.8951H27.0087L16.6275 21.5924C16.3922 21.7391 16.0599 21.8644 15.6306 21.9683C15.2013 22.0721 14.811 22.0943 14.4596 22.0347L20.2483 40.8951Z" fill="#D5B23E"/>
</svg>
