<svg width="55" height="55" viewBox="0 0 55 55" fill="none" xmlns="http://www.w3.org/2000/svg">
<path d="M8.52688 48.1714L6.89062 46.4916L14.0338 39.3461C12.7794 38.0918 11.8315 36.7726 11.1898 35.3884C10.5481 34.0043 10.2273 32.5926 10.2273 31.1534C10.2273 29.7632 10.484 28.4393 10.9973 27.182C11.5106 25.9246 12.244 24.8346 13.1973 23.9118L15.67 21.4986L17.6706 23.4534C17.7149 22.1151 17.9823 20.8402 18.4727 19.6286C18.9616 18.4186 19.6751 17.3599 20.6131 16.4524L23.0858 14.037L25.0865 15.9941C25.1308 14.7123 25.4081 13.4809 25.9183 12.2999C26.4286 11.1189 27.152 10.0602 28.0885 9.12365L33.034 4.14844L34.6542 5.76865L32.1952 8.33073L32.9881 9.12365C34.1309 10.2664 34.9483 11.5902 35.4402 13.0951C35.9291 14.5984 36.0345 16.1224 35.7565 17.667L46.4608 6.87552L48.0833 8.51177L37.434 19.2139C38.9801 18.9648 40.4979 19.0932 41.9875 19.5989C43.4771 20.1045 44.7933 20.9288 45.936 22.0716L46.7725 22.8645L49.2337 20.3024L50.8677 21.9386L45.9933 26.9139C45.0858 27.8901 44.0149 28.6257 42.7804 29.1207C41.546 29.6157 40.2741 29.8846 38.9648 29.9274L40.8783 31.8295L38.4629 34.2426C37.5249 35.1807 36.4485 35.9048 35.234 36.4151C34.0194 36.9254 32.7422 37.2019 31.4023 37.2447L33.4602 39.2889L30.9875 41.7616C30.0265 42.7225 28.9151 43.4582 27.6531 43.9684C26.3927 44.4772 25.0712 44.7316 23.6885 44.7316C22.4205 44.7316 21.1349 44.426 19.8317 43.8149C18.5285 43.2007 17.1603 42.2474 15.7273 40.9549L8.52688 48.1714ZM15.67 37.6526C16.7303 36.5939 17.5278 35.529 18.0625 34.458C18.5972 33.387 18.8646 32.3046 18.8646 31.2107C18.8646 30.1566 18.5972 29.0894 18.0625 28.0093C17.5278 26.9291 16.7303 25.8444 15.67 24.7551C14.6388 25.7864 13.8535 26.8489 13.3142 27.9428C12.7749 29.0367 12.5052 30.126 12.5052 31.2107C12.5052 32.3336 12.7749 33.4375 13.3142 34.5222C13.8535 35.6069 14.6388 36.6489 15.67 37.6526ZM23.7481 42.4972C24.8405 42.488 25.9321 42.2161 27.0229 41.6814C28.1122 41.1466 29.1725 40.3491 30.2038 39.2889C29.1144 38.1996 28.0374 37.3944 26.9725 36.8734C25.9061 36.354 24.8458 36.0943 23.7917 36.0943C22.7069 36.0943 21.6253 36.3716 20.5467 36.9262C19.4681 37.4807 18.3833 38.3027 17.2925 39.392C18.3222 40.4232 19.3825 41.1986 20.4733 41.718C21.5642 42.2375 22.6558 42.4972 23.7481 42.4972ZM23.0858 30.1932C24.1461 29.1039 24.9436 28.0215 25.4783 26.9459C26.0131 25.8704 26.2804 24.8055 26.2804 23.7514C26.2804 22.6575 26.0131 21.5727 25.4783 20.4972C24.9436 19.4216 24.1461 18.3537 23.0858 17.2934C22.0546 18.2957 21.2693 19.3422 20.73 20.433C20.1907 21.5223 19.921 22.6284 19.921 23.7514C19.921 24.8346 20.1907 25.9216 20.73 27.0124C21.2693 28.1017 22.0546 29.162 23.0858 30.1932ZM31.2213 34.992C32.3442 34.992 33.4411 34.7223 34.5121 34.183C35.5815 33.6452 36.6028 32.8607 37.576 31.8295C36.5448 30.7386 35.5013 29.9335 34.4456 29.4141C33.3899 28.8946 32.3297 28.6349 31.2648 28.6349C30.1999 28.6349 29.1228 28.9114 28.0335 29.4645C26.9442 30.0175 25.8549 30.8395 24.7656 31.9303C25.7678 32.9325 26.8213 33.6934 27.9258 34.2128C29.0304 34.7323 30.1289 34.992 31.2213 34.992ZM30.5177 22.8645C31.549 21.8623 32.322 20.8157 32.8369 19.7249C33.3517 18.6341 33.6099 17.5287 33.6115 16.4089C33.6115 15.2936 33.3533 14.1898 32.8369 13.0974C32.322 12.002 31.5635 10.9386 30.5613 9.9074C29.53 10.9386 28.7447 12.002 28.2054 13.0974C27.6661 14.1928 27.3965 15.2821 27.3965 16.3653C27.3965 17.4867 27.6585 18.5928 28.1825 19.6836C28.7081 20.773 29.4865 21.8332 30.5177 22.8645ZM38.6394 27.6518C39.7241 27.6518 40.8134 27.3821 41.9073 26.8428C43.0012 26.3035 44.0783 25.5037 45.1385 24.4434C44.0401 23.4122 42.9431 22.6361 41.8477 22.1151C40.7538 21.5957 39.6645 21.3359 38.5798 21.3359C37.4966 21.3451 36.4172 21.6171 35.3417 22.1518C34.2661 22.6865 33.1982 23.4695 32.1379 24.5007C33.1982 25.561 34.2753 26.3532 35.3692 26.8772C36.4646 27.4012 37.5547 27.6594 38.6394 27.6518Z" fill="#D5B23E"/>
</svg>
