<svg width="55" height="55" viewBox="0 0 55 55" fill="none" xmlns="http://www.w3.org/2000/svg">
<path d="M34.3756 48.1243V10.9993C34.3756 10.5131 34.1825 10.0468 33.8387 9.70299C33.4949 9.35917 33.0285 9.16602 32.5423 9.16602H22.459C21.9728 9.16602 21.5064 9.35917 21.1626 9.70299C20.8188 10.0468 20.6256 10.5131 20.6256 10.9993V48.1243M10.084 16.041H44.9173C46.376 16.041 47.775 16.6205 48.8064 17.6519C49.8379 18.6834 50.4173 20.0823 50.4173 21.541V42.6243C50.4173 44.083 49.8379 45.482 48.8064 46.5134C47.775 47.5449 46.376 48.1243 44.9173 48.1243H10.084C8.62529 48.1243 7.22635 47.5449 6.1949 46.5134C5.16345 45.482 4.58398 44.083 4.58398 42.6243V21.541C4.58398 20.0823 5.16345 18.6834 6.1949 17.6519C7.22635 16.6205 8.62529 16.041 10.084 16.041Z" stroke="#D5B23E" stroke-width="2" stroke-miterlimit="10" stroke-linecap="round" stroke-linejoin="round"/>
</svg>
