<svg width="55" height="55" viewBox="0 0 55 55" fill="none" xmlns="http://www.w3.org/2000/svg">
<path d="M10.3125 41.25H13.75V44.6875H6.875V10.3125H3.4375V48.125H13.75V51.5625H0V6.875H6.875V3.4375H17.1875C18.763 3.4375 20.2759 3.6792 21.7261 4.1626C23.1763 4.646 24.528 5.37109 25.7812 6.33789C27.0166 5.37109 28.3594 4.646 29.8096 4.1626C31.2598 3.6792 32.7816 3.4375 34.375 3.4375H44.6875V6.875H51.5625V28.8696L48.125 27.312V10.3125H44.6875V25.7544L41.25 24.1699V6.875H34.375C33.1038 6.875 31.8864 7.08984 30.7227 7.51953C29.5589 7.94922 28.4847 8.5848 27.5 9.42627V25.7544L24.0625 27.312V9.42627C23.0957 8.6027 22.0304 7.97607 20.8667 7.54639C19.703 7.1167 18.4766 6.8929 17.1875 6.875H10.3125V41.25ZM48.125 48.0981L36.0938 54.1406L24.0625 48.0981C24.0625 47.4536 24.0715 46.7733 24.0894 46.0571C24.1073 45.341 24.1789 44.6159 24.3042 43.8818C24.4295 43.1478 24.6086 42.4585 24.8413 41.814C25.0741 41.1694 25.3963 40.5697 25.8081 40.0146L20.625 37.6514V53.2812H17.1875V36.0938L36.0938 27.5L55 36.0938L46.3794 40.0146L46.5942 40.3101C46.9702 40.8651 47.2567 41.4648 47.4536 42.1094C47.6506 42.7539 47.8027 43.4074 47.9102 44.0698C48.0176 44.7323 48.0802 45.4126 48.0981 46.1108C48.116 46.8091 48.125 47.4715 48.125 48.0981ZM36.0938 31.2598L25.4858 36.0938L36.0938 40.9277L46.7017 36.0938L36.0938 31.2598ZM36.0938 50.3003L44.6875 45.9766C44.6696 45.5111 44.6338 45.0903 44.5801 44.7144C44.5264 44.3384 44.4279 43.9714 44.2847 43.6133C44.1414 43.2552 43.9982 42.9061 43.855 42.5659C43.7118 42.2257 43.5059 41.8498 43.2373 41.438L36.0938 44.6875L28.9502 41.438C28.6816 41.8677 28.4668 42.2526 28.3057 42.5928C28.1445 42.9329 28.0013 43.2731 27.876 43.6133C27.7507 43.9534 27.6701 44.3115 27.6343 44.6875C27.5985 45.0635 27.5627 45.5021 27.5269 46.0034L36.0938 50.3003Z" fill="#D5B23E"/>
</svg>
