<svg width="55" height="55" viewBox="0 0 55 55" fill="none" xmlns="http://www.w3.org/2000/svg">
<path d="M33.2292 17.1868C33.2292 14.1479 32.022 11.2334 29.8731 9.08458C27.7242 6.93573 24.8098 5.72852 21.7708 5.72852C18.7319 5.72852 15.8174 6.93573 13.6686 9.08458C11.5197 11.2334 10.3125 14.1479 10.3125 17.1868C10.3125 20.2258 11.5197 23.1403 13.6686 25.2891C15.8174 27.438 18.7319 28.6452 21.7708 28.6452C24.8098 28.6452 27.7242 27.438 29.8731 25.2891C32.022 23.1403 33.2292 20.2258 33.2292 17.1868Z" stroke="#D5B23E" stroke-width="2" stroke-linecap="round" stroke-linejoin="round"/>
<path d="M5.72852 44.6876C5.72796 41.981 6.4122 39.3184 7.71754 36.9474C9.02287 34.5765 10.9069 32.5744 13.1942 31.1275C15.4814 29.6805 18.0976 28.8358 20.7992 28.672C23.5007 28.5082 26.1998 29.0305 28.6452 30.1905M41.2494 34.3751C43.3806 34.3751 45.2369 35.5369 46.2223 37.2626C46.7035 38.099 46.9785 39.0684 46.9785 40.1042C46.9785 41.1401 46.7035 42.1094 46.2246 42.9459C45.2368 44.6715 43.3806 45.8334 41.2494 45.8334M41.2494 45.8334C39.1181 45.8334 37.2619 44.6715 36.2741 42.9459M41.2494 45.8334V49.2709M46.2246 42.9459L49.2702 44.6876M36.2741 42.9459L33.2285 44.6876M41.2494 34.3751C39.1181 34.3751 37.2618 35.5369 36.2764 37.2626C35.7952 38.099 35.5202 39.0707 35.5202 40.1042C35.52 41.1009 35.7799 42.0804 36.2741 42.9459M41.2494 34.3751V30.9376M46.2223 37.2626L49.2702 35.5209M36.2764 37.2626L33.2285 35.5209" stroke="#D5B23E" stroke-width="2" stroke-linecap="round" stroke-linejoin="round"/>
</svg>
