<svg width="55" height="55" viewBox="0 0 55 55" fill="none" xmlns="http://www.w3.org/2000/svg">
<path d="M27.498 16.3398C26.0327 16.3398 24.5817 16.6285 23.2279 17.1892C21.8742 17.75 20.6441 18.5719 19.608 19.608C18.5719 20.6441 17.75 21.8742 17.1892 23.2279C16.6285 24.5817 16.3398 26.0327 16.3398 27.498C16.3398 28.9633 16.6285 30.4142 17.1892 31.768C17.75 33.1218 18.5719 34.3518 19.608 35.388C20.6441 36.4241 21.8742 37.246 23.2279 37.8067C24.5817 38.3675 26.0327 38.6561 27.498 38.6561C30.4573 38.6561 33.2954 37.4805 35.388 35.388C37.4805 33.2954 38.6561 30.4573 38.6561 27.498C38.6561 24.5386 37.4805 21.7005 35.388 19.608C33.2954 17.5154 30.4573 16.3398 27.498 16.3398ZM19.7773 27.498C19.7773 25.4503 20.5908 23.4866 22.0387 22.0387C23.4866 20.5908 25.4503 19.7773 27.498 19.7773C29.5456 19.7773 31.5094 20.5908 32.9573 22.0387C34.4052 23.4866 35.2186 25.4503 35.2186 27.498C35.2186 29.5456 34.4052 31.5094 32.9573 32.9573C31.5094 34.4052 29.5456 35.2186 27.498 35.2186C25.4503 35.2186 23.4866 34.4052 22.0387 32.9573C20.5908 31.5094 19.7773 29.5456 19.7773 27.498Z" fill="#D5B23E"/>
<path d="M33.672 4.61484C31.8605 -1.53828 23.1361 -1.53828 21.3245 4.61484L21.0014 5.71141C20.8749 6.14093 20.6539 6.5367 20.3545 6.8697C20.0552 7.2027 19.6851 7.4645 19.2715 7.6359C18.8578 7.8073 18.411 7.88395 17.9639 7.86025C17.5167 7.83654 17.0806 7.71308 16.6873 7.49891L15.6836 6.94891C10.0461 3.88266 3.88266 10.0495 6.95234 15.6836L7.49891 16.6873C7.71308 17.0806 7.83654 17.5167 7.86025 17.9639C7.88395 18.411 7.8073 18.8578 7.6359 19.2715C7.4645 19.6851 7.2027 20.0552 6.8697 20.3545C6.5367 20.6539 6.14093 20.8749 5.71141 21.0014L4.61484 21.3245C-1.53828 23.1361 -1.53828 31.8605 4.61484 33.672L5.71141 33.9952C6.14093 34.1217 6.5367 34.3427 6.8697 34.642C7.2027 34.9414 7.4645 35.3114 7.6359 35.7251C7.8073 36.1388 7.88395 36.5855 7.86025 37.0327C7.83654 37.4798 7.71308 37.916 7.49891 38.3092L6.94891 39.313C3.88266 44.9505 10.0461 51.1173 15.6836 48.0442L16.6873 47.4977C17.0806 47.2835 17.5167 47.16 17.9639 47.1363C18.411 47.1126 18.8578 47.1893 19.2715 47.3607C19.6851 47.5321 20.0552 47.7939 20.3545 48.1269C20.6539 48.4599 20.8749 48.8556 21.0014 49.2852L21.3245 50.3817C23.1361 56.5348 31.8605 56.5348 33.672 50.3817L33.9952 49.2852C34.1217 48.8556 34.3427 48.4599 34.642 48.1269C34.9414 47.7939 35.3114 47.5321 35.7251 47.3607C36.1388 47.1893 36.5855 47.1126 37.0327 47.1363C37.4798 47.16 37.916 47.2835 38.3092 47.4977L39.313 48.0477C44.9505 51.1173 51.1173 44.947 48.0442 39.313L47.4977 38.3092C47.2835 37.916 47.16 37.4798 47.1363 37.0327C47.1126 36.5855 47.1893 36.1388 47.3607 35.7251C47.5321 35.3114 47.7939 34.9414 48.1269 34.642C48.4599 34.3427 48.8556 34.1217 49.2852 33.9952L50.3817 33.672C56.5348 31.8605 56.5348 23.1361 50.3817 21.3245L49.2852 21.0014C48.8556 20.8749 48.4599 20.6539 48.1269 20.3545C47.7939 20.0552 47.5321 19.6851 47.3607 19.2715C47.1893 18.8578 47.1126 18.411 47.1363 17.9639C47.16 17.5167 47.2835 17.0806 47.4977 16.6873L48.0477 15.6836C51.1173 10.0461 44.947 3.88266 39.313 6.95234L38.3092 7.49891C37.916 7.71308 37.4798 7.83654 37.0327 7.86025C36.5855 7.88395 36.1388 7.8073 35.7251 7.6359C35.3114 7.4645 34.9414 7.2027 34.642 6.8697C34.3427 6.5367 34.1217 6.14093 33.9952 5.71141L33.672 4.61484ZM24.6211 5.58766C25.4667 2.71734 29.5298 2.71734 30.3755 5.58766L30.6986 6.68422C30.9702 7.60576 31.4447 8.45483 32.0871 9.16919C32.7295 9.88354 33.5237 10.4451 34.4114 10.8126C35.299 11.1801 36.2577 11.3443 37.2171 11.2932C38.1764 11.242 39.1122 10.9768 39.9558 10.517L40.9561 9.96703C43.5823 8.54047 46.4561 11.4108 45.0261 14.0405L44.4795 15.0442C44.0204 15.8879 43.7559 16.8236 43.7053 17.7827C43.6547 18.7419 43.8193 19.7002 44.1872 20.5875C44.555 21.4747 45.1167 22.2685 45.8311 22.9105C46.5454 23.5525 47.3944 24.0266 48.3158 24.298L49.4089 24.6211C52.2792 25.4667 52.2792 29.5298 49.4089 30.3755L48.3123 30.6986C47.3908 30.9702 46.5417 31.4447 45.8274 32.0871C45.113 32.7295 44.5515 33.5237 44.184 34.4114C43.8165 35.299 43.6522 36.2577 43.7034 37.2171C43.7545 38.1764 44.0197 39.1122 44.4795 39.9558L45.0295 40.9561C46.4561 43.5823 43.5858 46.4561 40.9561 45.0261L39.9558 44.4795C39.112 44.0198 38.176 43.7547 37.2164 43.7038C36.2569 43.6529 35.2981 43.8174 34.4103 44.1852C33.5226 44.5531 32.7285 45.115 32.0862 45.8298C31.444 46.5445 30.9698 47.3939 30.6986 48.3158L30.3755 49.4089C29.5298 52.2792 25.4667 52.2792 24.6211 49.4089L24.298 48.3123C24.0262 47.3913 23.5519 46.5427 22.9097 45.8287C22.2675 45.1147 21.4737 44.5534 20.5865 44.1859C19.6992 43.8184 18.741 43.6541 17.7821 43.7049C16.8231 43.7557 15.8876 44.0204 15.0442 44.4795L14.0405 45.0295C11.4142 46.4561 8.54047 43.5858 9.97047 40.9561L10.517 39.9558C10.9775 39.1121 11.2432 38.176 11.2947 37.2162C11.3462 36.2564 11.1821 35.2973 10.8145 34.4092C10.447 33.5211 9.8852 32.7265 9.17049 32.0838C8.45578 31.4412 7.60624 30.9667 6.68422 30.6952L5.58766 30.372C2.71734 29.5264 2.71734 25.4633 5.58766 24.6177L6.68422 24.2945C7.6048 24.0227 8.45295 23.5484 9.16658 22.9064C9.88022 22.2645 10.4413 21.4711 10.8087 20.5843C11.1761 19.6975 11.3406 18.7398 11.2902 17.7812C11.2397 16.8227 10.9756 15.8875 10.517 15.0442L9.96703 14.0405C8.54047 11.4142 11.4108 8.54047 14.0405 9.97047L15.0442 10.517C15.8876 10.9762 16.8231 11.2409 17.7821 11.2917C18.741 11.3425 19.6992 11.1781 20.5865 10.8107C21.4737 10.4432 22.2675 9.88188 22.9097 9.16788C23.5519 8.45389 24.0262 7.60528 24.298 6.68422L24.6211 5.58766Z" fill="#D5B23E"/>
</svg>
