<svg width="55" height="55" viewBox="0 0 55 55" fill="none" xmlns="http://www.w3.org/2000/svg">
<g clip-path="url(#clip0_1717_5721)">
<path d="M22.4327 16.9316C14.8898 11.7852 7.8577 15.7138 1.96484 21.7638L15.0077 29.6209M38.0684 32.5674C43.2148 40.1102 39.2863 47.1424 33.2363 53.0352L25.3791 39.9924" stroke="#D5B23E" stroke-width="2" stroke-linecap="round" stroke-linejoin="round"/>
<path d="M20.7435 19.7215L35.2792 34.2573M15.0078 29.5823L25.4185 39.993C33.7471 35.0037 43.215 30.1715 47.5364 25.693C56.8864 16.343 51.465 3.53582 51.465 3.53582C51.465 3.53582 38.6578 -1.8856 29.3078 7.4644C24.8292 11.7858 19.9578 21.293 15.0078 29.5823Z" stroke="#D5B23E" stroke-width="2" stroke-linecap="round" stroke-linejoin="round"/>
<path d="M41.2506 15.7137C41.7715 15.7137 42.2711 15.5068 42.6395 15.1384C43.0079 14.77 43.2148 14.2704 43.2148 13.7494C43.2148 13.2285 43.0079 12.7289 42.6395 12.3605C42.2711 11.9921 41.7715 11.7852 41.2506 11.7852C40.7296 11.7852 40.23 11.9921 39.8616 12.3605C39.4932 12.7289 39.2863 13.2285 39.2863 13.7494C39.2863 14.2704 39.4932 14.77 39.8616 15.1384C40.23 15.5068 40.7296 15.7137 41.2506 15.7137ZM14.4577 48.8709C12.1791 51.0709 1.96484 53.0352 1.96484 53.0352C1.96484 53.0352 3.92913 42.8209 6.12913 40.5423C6.94269 39.6725 8.00055 39.0695 9.16346 38.8126C10.3264 38.5557 11.5398 38.6569 12.6441 39.1029C13.7484 39.549 14.6917 40.3189 15.3499 41.3115C16.0081 42.304 16.3504 43.4726 16.3316 44.6634C16.3173 45.4539 16.1439 46.2335 15.822 46.9557C15.5001 47.6778 15.0361 48.3318 14.4577 48.8709Z" stroke="#D5B23E" stroke-width="2" stroke-linecap="round" stroke-linejoin="round"/>
</g>
<defs>
<clipPath id="clip0_1717_5721">
<rect width="55" height="55" fill="white"/>
</clipPath>
</defs>
</svg>
