<svg width="55" height="55" viewBox="0 0 55 55" fill="none" xmlns="http://www.w3.org/2000/svg">
<path d="M45.832 22.5716H41.2487L30.2716 14.5508C30.8255 14.1636 31.2788 13.6496 31.5938 13.0516C31.9087 12.4537 32.0761 11.7891 32.082 11.1133C32.0709 10.3144 31.8541 9.53193 31.4528 8.84115C31.0514 8.15038 30.4789 7.57461 29.7904 7.16932V4.23828H27.4987V8.82161C27.9519 8.82161 28.395 8.95602 28.7719 9.20783C29.1487 9.45964 29.4425 9.81755 29.6159 10.2363C29.7894 10.655 29.8348 11.1158 29.7463 11.5604C29.6579 12.0049 29.4396 12.4132 29.1192 12.7337C28.7987 13.0542 28.3903 13.2725 27.9458 13.3609C27.5012 13.4493 27.0405 13.404 26.6217 13.2305C26.203 13.0571 25.8451 12.7633 25.5932 12.3865C25.3414 12.0096 25.207 11.5665 25.207 11.1133H22.9154C22.9229 11.7903 23.0924 12.4556 23.4097 13.0537C23.7271 13.6517 24.1831 14.1651 24.7395 14.5508L13.7487 22.5716H9.16536C7.94979 22.5716 6.784 23.0545 5.92446 23.914C5.06492 24.7736 4.58203 25.9394 4.58203 27.1549V45.4883C4.58203 46.7039 5.06492 47.8696 5.92446 48.7292C6.784 49.5887 7.94979 50.0716 9.16536 50.0716H45.832C46.4342 50.0725 47.0306 49.9546 47.5871 49.7246C48.1436 49.4946 48.6492 49.157 49.075 48.7312C49.5007 48.3054 49.8383 47.7998 50.0683 47.2433C50.2983 46.6868 50.4163 46.0904 50.4154 45.4883V27.1549C50.4154 25.9394 49.9325 24.7736 49.0729 23.914C48.2134 23.0545 47.0476 22.5716 45.832 22.5716ZM27.4987 15.6966C27.5124 15.6966 36.6654 22.5716 36.6654 22.5716H18.332L27.4987 15.6966ZM46.9981 46.6543H7.99805V27.1549H46.9981V46.6543Z" fill="#D5B23E"/>
<path d="M32.082 43.543C32.6898 43.543 33.2727 43.3015 33.7025 42.8718C34.1323 42.442 34.3737 41.8591 34.3737 41.2513V32.0846C34.3737 31.4768 34.1323 30.894 33.7025 30.4642C33.2727 30.0344 32.6898 29.793 32.082 29.793C31.4742 29.793 30.8913 30.0344 30.4616 30.4642C30.0318 30.894 29.7904 31.4768 29.7904 32.0846V41.2513C29.7904 41.8591 30.0318 42.442 30.4616 42.8718C30.8913 43.3015 31.4742 43.543 32.082 43.543ZM41.2487 43.543C41.8565 43.543 42.4394 43.3015 42.8692 42.8718C43.2989 42.442 43.5404 41.8591 43.5404 41.2513V32.0846C43.5404 31.4768 43.2989 30.894 42.8692 30.4642C42.4394 30.0344 41.8565 29.793 41.2487 29.793C40.6409 29.793 40.058 30.0344 39.6282 30.4642C39.1985 30.894 38.957 31.4768 38.957 32.0846V41.2513C38.957 41.8591 39.1985 42.442 39.6282 42.8718C40.058 43.3015 40.6409 43.543 41.2487 43.543ZM13.7487 43.543C14.3565 43.543 14.9394 43.3015 15.3692 42.8718C15.7989 42.442 16.0404 41.8591 16.0404 41.2513V32.0846C16.0404 31.4768 15.7989 30.894 15.3692 30.4642C14.9394 30.0344 14.3565 29.793 13.7487 29.793C13.1409 29.793 12.558 30.0344 12.1282 30.4642C11.6985 30.894 11.457 31.4768 11.457 32.0846V41.2513C11.457 41.8591 11.6985 42.442 12.1282 42.8718C12.558 43.3015 13.1409 43.543 13.7487 43.543ZM22.9154 43.543C23.5232 43.543 24.106 43.3015 24.5358 42.8718C24.9656 42.442 25.207 41.8591 25.207 41.2513V32.0846C25.207 31.4768 24.9656 30.894 24.5358 30.4642C24.106 30.0344 23.5232 29.793 22.9154 29.793C22.3076 29.793 21.7247 30.0344 21.2949 30.4642C20.8651 30.894 20.6237 31.4768 20.6237 32.0846V41.2513C20.6237 41.8591 20.8651 42.442 21.2949 42.8718C21.7247 43.3015 22.3076 43.543 22.9154 43.543Z" fill="#D5B23E"/>
</svg>
