<svg width="55" height="55" viewBox="0 0 55 55" fill="none" xmlns="http://www.w3.org/2000/svg">
<path d="M21.2883 30.4549L9.16536 42.6008V38.957C9.16536 38.3492 8.92392 37.7663 8.49415 37.3366C8.06438 36.9068 7.48149 36.6654 6.8737 36.6654C6.26591 36.6654 5.68302 36.9068 5.25324 37.3366C4.82347 37.7663 4.58203 38.3492 4.58203 38.957V48.1237C4.58565 48.4232 4.64794 48.719 4.76536 48.9945C4.99791 49.5545 5.4429 49.9995 6.00286 50.232C6.27837 50.3495 6.57423 50.4117 6.8737 50.4154H16.0404C16.6482 50.4154 17.231 50.1739 17.6608 49.7441C18.0906 49.3144 18.332 48.7315 18.332 48.1237C18.332 47.5159 18.0906 46.933 17.6608 46.5032C17.231 46.0735 16.6482 45.832 16.0404 45.832H12.3966L24.5424 33.7091C24.974 33.2776 25.2164 32.6923 25.2164 32.082C25.2164 31.4718 24.974 30.8865 24.5424 30.4549C24.1109 30.0234 23.5256 29.781 22.9154 29.781C22.3051 29.781 21.7198 30.0234 21.2883 30.4549ZM12.3966 9.16536H16.0404C16.6482 9.16536 17.231 8.92392 17.6608 8.49415C18.0906 8.06438 18.332 7.48149 18.332 6.8737C18.332 6.26591 18.0906 5.68302 17.6608 5.25324C17.231 4.82347 16.6482 4.58203 16.0404 4.58203H6.8737C6.57423 4.58565 6.27837 4.64794 6.00286 4.76536C5.4429 4.99791 4.99791 5.4429 4.76536 6.00286C4.64794 6.27837 4.58565 6.57423 4.58203 6.8737V16.0404C4.58203 16.6482 4.82347 17.231 5.25324 17.6608C5.68302 18.0906 6.26591 18.332 6.8737 18.332C7.48149 18.332 8.06438 18.0906 8.49415 17.6608C8.92392 17.231 9.16536 16.6482 9.16536 16.0404V12.3966L21.2883 24.5424C21.5013 24.7572 21.7548 24.9277 22.034 25.0441C22.3133 25.1604 22.6128 25.2203 22.9154 25.2203C23.2179 25.2203 23.5174 25.1604 23.7967 25.0441C24.0759 24.9277 24.3294 24.7572 24.5424 24.5424C24.7572 24.3294 24.9277 24.0759 25.0441 23.7967C25.1604 23.5174 25.2203 23.2179 25.2203 22.9154C25.2203 22.6128 25.1604 22.3133 25.0441 22.034C24.9277 21.7548 24.7572 21.5013 24.5424 21.2883L12.3966 9.16536ZM48.1237 36.6654C47.5159 36.6654 46.933 36.9068 46.5032 37.3366C46.0735 37.7663 45.832 38.3492 45.832 38.957V42.6008L33.7091 30.4549C33.2776 30.0234 32.6923 29.781 32.082 29.781C31.4718 29.781 30.8865 30.0234 30.4549 30.4549C30.0234 30.8865 29.781 31.4718 29.781 32.082C29.781 32.6923 30.0234 33.2776 30.4549 33.7091L42.6008 45.832H38.957C38.3492 45.832 37.7663 46.0735 37.3366 46.5032C36.9068 46.933 36.6654 47.5159 36.6654 48.1237C36.6654 48.7315 36.9068 49.3144 37.3366 49.7441C37.7663 50.1739 38.3492 50.4154 38.957 50.4154H48.1237C48.4232 50.4117 48.719 50.3495 48.9945 50.232C49.5545 49.9995 49.9995 49.5545 50.232 48.9945C50.3495 48.719 50.4117 48.4232 50.4154 48.1237V38.957C50.4154 38.3492 50.1739 37.7663 49.7441 37.3366C49.3144 36.9068 48.7315 36.6654 48.1237 36.6654ZM50.232 6.00286C49.9995 5.4429 49.5545 4.99791 48.9945 4.76536C48.719 4.64794 48.4232 4.58565 48.1237 4.58203H38.957C38.3492 4.58203 37.7663 4.82347 37.3366 5.25324C36.9068 5.68302 36.6654 6.26591 36.6654 6.8737C36.6654 7.48149 36.9068 8.06438 37.3366 8.49415C37.7663 8.92392 38.3492 9.16536 38.957 9.16536H42.6008L30.4549 21.2883C30.2402 21.5013 30.0697 21.7548 29.9533 22.034C29.837 22.3133 29.7771 22.6128 29.7771 22.9154C29.7771 23.2179 29.837 23.5174 29.9533 23.7967C30.0697 24.0759 30.2402 24.3294 30.4549 24.5424C30.668 24.7572 30.9214 24.9277 31.2007 25.0441C31.48 25.1604 31.7795 25.2203 32.082 25.2203C32.3846 25.2203 32.6841 25.1604 32.9634 25.0441C33.2426 24.9277 33.4961 24.7572 33.7091 24.5424L45.832 12.3966V16.0404C45.832 16.6482 46.0735 17.231 46.5032 17.6608C46.933 18.0906 47.5159 18.332 48.1237 18.332C48.7315 18.332 49.3144 18.0906 49.7441 17.6608C50.1739 17.231 50.4154 16.6482 50.4154 16.0404V6.8737C50.4117 6.57423 50.3495 6.27837 50.232 6.00286Z" fill="#D5B23E"/>
</svg>
