<svg width="55" height="55" viewBox="0 0 55 55" fill="none" xmlns="http://www.w3.org/2000/svg">
<path d="M6.875 8.59375C6.875 8.13791 7.05608 7.70074 7.37841 7.37841C7.70074 7.05608 8.13791 6.875 8.59375 6.875H46.4062C46.8621 6.875 47.2993 7.05608 47.6216 7.37841C47.9439 7.70074 48.125 8.13791 48.125 8.59375C48.125 9.04959 47.9439 9.48676 47.6216 9.80909C47.2993 10.1314 46.8621 10.3125 46.4062 10.3125H43.9416L49.7372 26.0459C49.8075 26.2363 49.8436 26.4377 49.8438 26.6406C49.8438 31.0698 46.5386 34.375 42.1094 34.375C37.6802 34.375 34.375 31.0698 34.375 26.6406C34.3751 26.4377 34.4112 26.2363 34.4816 26.0459L40.2772 10.3125H29.2188V37.8125H39.5312C40.2084 37.8125 40.8789 37.9459 41.5045 38.205C42.13 38.4641 42.6985 38.8439 43.1773 39.3227C43.6561 39.8015 44.0359 40.37 44.295 40.9955C44.5541 41.6211 44.6875 42.2916 44.6875 42.9688C44.6875 43.6459 44.5541 44.3164 44.295 44.942C44.0359 45.5675 43.6561 46.136 43.1773 46.6148C42.6985 47.0936 42.13 47.4734 41.5045 47.7325C40.8789 47.9916 40.2084 48.125 39.5312 48.125H15.4688C14.1012 48.125 12.7897 47.5818 11.8227 46.6148C10.8557 45.6478 10.3125 44.3363 10.3125 42.9688C10.3125 41.6012 10.8557 40.2897 11.8227 39.3227C12.7897 38.3557 14.1012 37.8125 15.4688 37.8125H25.7812V10.3125H14.5114L20.5133 26.027C20.5876 26.223 20.6255 26.431 20.625 26.6406C20.625 31.0698 17.3198 34.375 12.8906 34.375C8.46141 34.375 5.15625 31.0698 5.15625 26.6406C5.15631 26.4309 5.19475 26.2229 5.26969 26.027L11.2681 10.3125H8.59375C8.13791 10.3125 7.70074 10.1314 7.37841 9.80909C7.05608 9.48676 6.875 9.04959 6.875 8.59375ZM13.75 42.9688C13.75 43.4246 13.9311 43.8618 14.2534 44.1841C14.5757 44.5064 15.0129 44.6875 15.4688 44.6875H39.5312C39.9871 44.6875 40.4243 44.5064 40.7466 44.1841C41.0689 43.8618 41.25 43.4246 41.25 42.9688C41.25 42.5129 41.0689 42.0757 40.7466 41.7534C40.4243 41.4311 39.9871 41.25 39.5312 41.25H15.4688C15.0129 41.25 14.5757 41.4311 14.2534 41.7534C13.9311 42.0757 13.75 42.5129 13.75 42.9688ZM12.8906 15.7042L9.37063 24.9219H16.4106L12.8906 15.7042ZM16.8798 28.3594H8.90312C9.51156 29.9355 10.9828 30.9375 12.8906 30.9375C14.7984 30.9375 16.2697 29.9355 16.8798 28.3594ZM42.1094 30.9375C44.0172 30.9375 45.4884 29.9355 46.0986 28.3594H38.1219C38.732 29.9355 40.2033 30.9375 42.1094 30.9375ZM38.5602 24.9219H45.662L42.1094 15.2848L38.5602 24.9219Z" fill="#D5B23E"/>
</svg>
