<svg width="55" height="55" viewBox="0 0 55 55" fill="none" xmlns="http://www.w3.org/2000/svg">
<path d="M48.1238 38.9614V36.6697C48.1238 35.4541 47.6409 34.2883 46.7814 33.4288C45.9218 32.5692 44.756 32.0864 43.5405 32.0864C42.3249 32.0864 41.1591 32.5692 40.2996 33.4288C39.44 34.2883 38.9571 35.4541 38.9571 36.6697V38.9614M4.62109 32.0864C9.66276 32.0864 13.7488 36.1724 13.7488 41.2141M13.7488 9.21094C13.7488 14.2526 9.66276 18.3364 4.62109 18.3364M41.2488 9.21094C41.2488 14.2068 45.3028 18.2653 50.2826 18.3364M45.8321 38.9614H41.2488C39.0878 38.9614 38.0084 38.9614 37.3369 39.6328C36.6655 40.3043 36.6655 41.3836 36.6655 43.5447C36.6655 45.7057 36.6655 46.7851 37.3369 47.4566C38.0084 48.128 39.0878 48.128 41.2488 48.128H45.8321C47.9932 48.128 49.0726 48.128 49.744 47.4566C50.4155 46.7851 50.4155 45.7057 50.4155 43.5447C50.4155 41.3836 50.4155 40.3043 49.744 39.6328C49.0726 38.9614 47.9932 38.9614 45.8321 38.9614Z" stroke="#D5B23E" stroke-width="3" stroke-linecap="round" stroke-linejoin="round"/>
<path d="M50.4154 25.2096V22.918C50.4154 16.4371 50.4154 13.1944 48.401 11.1823C46.3889 9.16797 43.1462 9.16797 36.6654 9.16797H18.332C11.8512 9.16797 8.60849 9.16797 6.59641 11.1823C4.58203 13.1944 4.58203 16.4371 4.58203 22.918V27.5013C4.58203 33.9821 4.58203 37.2248 6.59641 39.2369C8.60849 41.2513 11.8512 41.2513 18.332 41.2513H27.4987" stroke="#D5B23E" stroke-width="3" stroke-linecap="round" stroke-linejoin="round"/>
<path d="M34.375 25.2109C34.375 27.0343 33.6507 28.783 32.3614 30.0723C31.072 31.3616 29.3234 32.0859 27.5 32.0859C25.6766 32.0859 23.928 31.3616 22.6386 30.0723C21.3493 28.783 20.625 27.0343 20.625 25.2109C20.625 23.3876 21.3493 21.6389 22.6386 20.3496C23.928 19.0603 25.6766 18.3359 27.5 18.3359C29.3234 18.3359 31.072 19.0603 32.3614 20.3496C33.6507 21.6389 34.375 23.3876 34.375 25.2109Z" stroke="#D5B23E" stroke-width="3" stroke-linecap="round" stroke-linejoin="round"/>
</svg>
