<svg width="55" height="55" viewBox="0 0 55 55" fill="none" xmlns="http://www.w3.org/2000/svg">
<path d="M44.6875 10.3125C42.8147 12.1039 40.5875 13.4833 38.1494 14.3619C35.5781 14.8156 28.4625 11.5156 24.9563 14.8844C24.3719 15.4687 23.65 16.0531 22.8937 16.6375C21.2437 15.9156 18.7 14.8156 16.8438 13.75C14.9875 12.6844 10.3125 10.3125 10.3125 10.3125L0 22.3438C0 22.3438 2.54375 25.7812 4.125 28.05C5.15625 29.5625 6.42812 31.8656 7.25312 33.4125L6.08437 34.7875C5.80648 35.344 5.70689 35.9726 5.79916 36.5877C5.89143 37.2028 6.17107 37.7745 6.6 38.225C7.09646 38.5993 7.70159 38.8012 8.32334 38.8C8.94509 38.7987 9.54942 38.5944 10.0444 38.2181C9.86059 38.4333 9.7215 38.6829 9.63522 38.9524C9.54894 39.2219 9.51719 39.5059 9.54183 39.7878C9.56647 40.0697 9.647 40.3439 9.77873 40.5944C9.91045 40.8448 10.0907 41.0665 10.3091 41.2466C10.8347 41.5511 11.4316 41.7108 12.0391 41.7096C12.6465 41.7084 13.2428 41.5463 13.7672 41.2397C13.3744 41.7292 13.1595 42.3376 13.1577 42.9652C13.1558 43.5928 13.3671 44.2025 13.7569 44.6944C14.2635 44.8703 14.804 44.9265 15.336 44.8585C15.868 44.7905 16.377 44.6002 16.8231 44.3025C16.5998 44.8286 16.5417 45.4102 16.6565 45.9701C16.7713 46.53 17.0536 47.0417 17.4659 47.4375C18.0478 47.6936 18.6847 47.7989 19.318 47.7436C19.9513 47.6883 20.5604 47.4743 21.0891 47.1213L22.8628 45.5159C24.4853 47.1316 26.7231 48.1319 29.1947 48.1319L29.4044 48.1284C30.219 48.0593 30.9994 47.7697 31.6619 47.2906C32.3244 46.8116 32.844 46.1613 33.165 45.4094C33.6669 45.6019 34.2375 45.7325 34.8425 45.7325C35.6537 45.7325 36.4066 45.4988 37.0425 45.0966C39.0534 43.7663 38.5722 42.735 38.5722 42.735C39.2872 43.0428 40.0815 43.1158 40.8407 42.9434C41.5999 42.7711 42.2848 42.3623 42.7969 41.7759C43.329 41.2316 43.6645 40.5254 43.7505 39.769C43.8364 39.0126 43.6677 38.2492 43.2713 37.5994C43.2933 37.6116 43.3183 37.6176 43.3434 37.6166C44.7906 37.6166 46.0487 36.8191 46.7053 35.6434C47.0297 34.8081 47.1395 33.9048 47.0248 33.0161C46.9101 32.1274 46.5745 31.2816 46.0487 30.5559L46.0591 30.5731C48.8778 30.0231 48.7747 28.6138 50.1497 26.5513C51.45 24.8666 53.0703 23.4554 54.9175 22.3987L44.6875 10.3125ZM44.5156 34.5813C43.0031 36.0938 41.8344 35.4406 39.2562 33.4812C36.6781 31.5219 31.5563 27.8438 31.5563 27.8438C31.7659 28.8922 32.2506 29.8031 32.9347 30.5284C34.0312 31.7625 37.2969 34.5812 38.8438 36.025C39.8063 36.9187 42.2812 38.7062 40.8375 40.0812C39.3937 41.4562 38.2594 40.0813 35.8875 38.1563C33.5156 36.2313 28.2219 31.4875 28.2219 31.4875C28.1934 31.9422 28.2613 32.3977 28.4213 32.8242C28.5812 33.2508 28.8296 33.6387 29.15 33.9625C29.7344 34.65 33 37.8125 34.375 39.2563C35.75 40.7 36.9531 41.5594 35.7844 42.6937C34.6156 43.8281 32.2438 42.0406 30.9375 40.7C28.9094 38.7406 24.8875 35.0969 24.8875 35.0969L24.8841 35.2791C24.8841 36.2553 25.2209 37.1491 25.7881 37.8572C26.7781 39.1566 28.7031 40.8409 29.8719 42.1472C31.0406 43.4534 31.7281 44.5534 29.8719 45.5847C28.0156 46.6159 25.2656 44.0722 24.0625 42.8347V42.8278C24.0662 42.4877 23.9438 42.1582 23.7188 41.9031C23.3068 41.5235 22.7995 41.2629 22.251 41.1491C21.7025 41.0353 21.1334 41.0725 20.6044 41.2569C20.8215 41.0618 20.9954 40.8236 21.1152 40.5574C21.2349 40.2912 21.2978 40.003 21.2997 39.7111C21.3016 39.4193 21.2426 39.1302 21.1265 38.8625C21.0103 38.5947 20.8395 38.3542 20.625 38.1563C20.1738 37.8144 19.623 37.6296 19.0569 37.6303C18.4908 37.6309 17.9405 37.8168 17.49 38.1597C17.7178 37.9421 17.8936 37.676 18.0044 37.3812C18.1153 37.0863 18.1582 36.7703 18.1302 36.4565C18.1021 36.1428 18.0037 35.8394 17.8423 35.5689C17.6809 35.2984 17.4606 35.0677 17.1978 34.8941C16.5824 34.5074 15.8604 34.3257 15.1353 34.3751C14.4102 34.4246 13.7194 34.7025 13.1622 35.1691C13.5346 34.7177 13.7182 34.1399 13.6747 33.5563C13.6311 32.9727 13.3637 32.4286 12.9284 32.0375C12.3863 31.5359 11.6971 31.2223 10.9628 31.143C10.2285 31.0638 9.48821 31.2231 8.85156 31.5975L6.56562 27.7372C4.98438 25.2278 3.12813 22.6153 3.12813 22.6153L10.9656 13.0934C10.9656 13.0934 13.75 14.8122 16.0531 16.1184C17.1875 16.7716 19.1469 17.6309 20.625 18.3184C18.2875 20.0716 16.3281 21.7559 16.9125 22.9247C17.9531 23.6741 19.198 24.0876 20.4802 24.1097C21.7624 24.1318 23.0207 23.7615 24.0866 23.0484C25.4532 22.1374 27.0607 21.6551 28.7031 21.6631C29.8959 21.6631 31.0303 21.9106 32.0581 22.3609C33.9625 23.6466 37.4688 26.8091 40.6656 28.8028C44.6875 31.7247 45.4781 33.6153 44.5156 34.5778V34.5813Z" fill="#D5B23E"/>
</svg>
